<svg xmlns="http://www.w3.org/2000/svg"  viewBox="0 0 50 50" width="50px" height="50px"><path d="M10.051 24C10.547 16.527 16.527 10.547 24 10.051V2.025C12.112 2.537 2.537 12.112 2.025 24H10.051zM26 10.051C33.473 10.547 39.453 16.527 39.949 24h8.025C47.463 12.112 37.888 2.537 26 2.025V10.051zM39.949 26C39.453 33.473 33.473 39.453 26 39.949v8.025C37.888 47.463 47.463 37.888 47.975 26H39.949zM24 39.949C16.527 39.453 10.547 33.473 10.051 26H2.025C2.537 37.888 12.112 47.463 24 47.975V39.949z"/></svg>